<svg width="3395" height="3392" viewBox="0 0 3395 3392" fill="none" xmlns="http://www.w3.org/2000/svg">
<path d="M70.9304 73.9591C116.361 28.5424 177.969 3.02868 242.208 3.02868C306.446 3.02868 368.055 28.5424 413.485 73.9591L1695.77 1356.24L2978.05 73.9591C3000.39 50.8208 3027.13 32.3649 3056.68 19.6683C3086.24 6.97171 3118.03 0.28867 3150.2 0.00914701C3182.36 -0.270376 3214.26 5.85915 3244.04 18.0402C3273.81 30.2212 3300.86 48.2097 3323.6 70.9562C3346.35 93.7026 3364.34 120.751 3376.52 150.524C3388.7 180.297 3394.83 212.198 3394.55 244.365C3394.27 276.532 3387.59 308.321 3374.89 337.878C3362.19 367.434 3343.74 394.166 3320.6 416.514L2038.32 1698.79L3320.6 2981.07C3364.73 3026.76 3389.15 3087.96 3388.6 3151.48C3388.04 3215 3362.57 3275.76 3317.65 3320.68C3272.73 3365.6 3211.97 3391.07 3148.45 3391.63C3084.93 3392.18 3023.74 3367.76 2978.05 3323.63L1695.77 2041.35L413.485 3323.63C367.795 3367.76 306.599 3392.18 243.08 3391.63C179.56 3391.07 118.798 3365.6 73.8814 3320.68C28.9645 3275.76 3.48625 3215 2.93428 3151.48C2.38231 3087.96 26.8008 3026.76 70.9304 2981.07L1353.21 1698.79L70.9304 416.514C25.5137 371.084 0 309.475 0 245.237C0 180.998 25.5137 119.389 70.9304 73.9591V73.9591Z" fill="#0D0D0D"/>
</svg>
