<svg width="3395" height="2546" viewBox="0 0 3395 2546" fill="none" xmlns="http://www.w3.org/2000/svg">
<path d="M0 212.16C0 155.892 22.3525 101.928 62.1403 62.1403C101.928 22.3525 155.892 0 212.16 0H3182.4C3238.67 0 3292.63 22.3525 3332.42 62.1403C3372.21 101.928 3394.56 155.892 3394.56 212.16C3394.56 268.428 3372.21 322.392 3332.42 362.18C3292.63 401.967 3238.67 424.32 3182.4 424.32H212.16C155.892 424.32 101.928 401.967 62.1403 362.18C22.3525 322.392 0 268.428 0 212.16ZM0 1272.96C0 1216.69 22.3525 1162.73 62.1403 1122.94C101.928 1083.15 155.892 1060.8 212.16 1060.8H3182.4C3238.67 1060.8 3292.63 1083.15 3332.42 1122.94C3372.21 1162.73 3394.56 1216.69 3394.56 1272.96C3394.56 1329.23 3372.21 1383.19 3332.42 1422.98C3292.63 1462.77 3238.67 1485.12 3182.4 1485.12H212.16C155.892 1485.12 101.928 1462.77 62.1403 1422.98C22.3525 1383.19 0 1329.23 0 1272.96ZM0 2333.76C0 2277.49 22.3525 2223.53 62.1403 2183.74C101.928 2143.95 155.892 2121.6 212.16 2121.6H3182.4C3238.67 2121.6 3292.63 2143.95 3332.42 2183.74C3372.21 2223.53 3394.56 2277.49 3394.56 2333.76C3394.56 2390.03 3372.21 2443.99 3332.42 2483.78C3292.63 2523.57 3238.67 2545.92 3182.4 2545.92H212.16C155.892 2545.92 101.928 2523.57 62.1403 2483.78C22.3525 2443.99 0 2390.03 0 2333.76Z" fill="#0D0D0D"/>
</svg>
